<svg width="20" height="20" viewBox="0 0 20 20" fill="none" xmlns="http://www.w3.org/2000/svg">
<path d="M10.443 9.58572C10.2141 9.35684 9.84317 9.35684 9.61429 9.58572L7.10391 12.0961C6.87503 12.325 6.87503 12.6959 7.10391 12.9248C7.33264 13.1535 7.70374 13.1535 7.93246 12.9248L9.44263 11.4146V15.6485C9.44263 15.972 9.70508 16.2344 10.0286 16.2344C10.3522 16.2344 10.6145 15.972 10.6145 15.6485V11.4146L12.1247 12.9247C12.3537 13.1537 12.7245 13.1535 12.9534 12.9247C13.1823 12.6959 13.1823 12.325 12.9534 12.0961L10.443 9.58572Z" fill="#0061DF"/>
<path d="M12.5391 6.90369H7.51819C7.1947 6.90369 6.93225 7.16599 6.93225 7.48962C6.93225 7.81311 7.1947 8.07556 7.51819 8.07556H12.5391C12.8626 8.07556 13.125 7.81311 13.125 7.48962C13.125 7.16599 12.8627 6.90369 12.5391 6.90369Z" fill="#0061DF"/>
<path d="M15.677 0H6.89056C6.73523 0 6.58615 0.0617981 6.47629 0.171661L2.71072 3.93723C2.60086 4.04709 2.53906 4.19617 2.53906 4.3515V18.1589C2.53906 19.174 3.36502 20 4.38019 20H15.677C16.6893 20 17.5182 19.1815 17.5182 18.1589V1.84113C17.5182 0.828857 16.6998 0 15.677 0ZM6.93222 1.37283V3.72391C6.93222 4.09302 6.63208 4.39316 6.26297 4.39316H3.9119L6.93222 1.37283ZM16.3463 18.1589C16.3463 18.5234 16.0516 18.8281 15.677 18.8281H4.38019C4.01123 18.8281 3.71094 18.5278 3.71094 18.1589V5.56519H6.26297C7.27814 5.56519 8.1041 4.73923 8.1041 3.72406V1.17188H15.677C16.0417 1.17188 16.3463 1.46667 16.3463 1.84113V18.1589Z" fill="#0061DF"/>
</svg>
